<mxfile host="Electron" modified="2023-09-13T09:46:41.356Z" agent="Mozilla/5.0 (X11; Linux x86_64) AppleWebKit/537.36 (KHTML, like Gecko) draw.io/21.3.7 Chrome/112.0.5615.204 Electron/24.5.0 Safari/537.36" etag="NnU7SU8hkey60Ixoly1X" version="21.3.7" type="device">
  <diagram name="Page-1" id="V-mfDSPH_Pu4grFY6P7y">
    <mxGraphModel dx="1834" dy="5735" grid="1" gridSize="10" guides="1" tooltips="1" connect="1" arrows="1" fold="1" page="1" pageScale="1" pageWidth="3300" pageHeight="4681" math="0" shadow="0">
      <root>
        <mxCell id="0" />
        <mxCell id="1" parent="0" />
        <mxCell id="QXT48Pt5OPQpIca_ibTH-3" value="&lt;p style=&quot;margin:0px;margin-top:4px;text-align:center;&quot;&gt;&amp;lt;&amp;lt;requirement&amp;gt;&amp;gt;&lt;br&gt;&lt;b&gt;ALIMENTATION EN GRAINS&lt;/b&gt;&lt;/p&gt;&lt;hr&gt;&lt;p&gt;&lt;/p&gt;&lt;p style=&quot;margin:0px;margin-left:8px;text-align:left;&quot;&gt;text=&quot;Le système doit pouvir être alimenté en grains&quot;&lt;br&gt;Id=&quot;1.&quot;&lt;/p&gt;" style="shape=rect;overflow=fill;html=1;whiteSpace=wrap;align=center;" parent="1" vertex="1">
          <mxGeometry x="300" y="80" width="200" height="100" as="geometry" />
        </mxCell>
        <mxCell id="QXT48Pt5OPQpIca_ibTH-34" style="rounded=0;orthogonalLoop=1;jettySize=auto;html=1;dashed=1;dashPattern=8 8;" parent="1" source="QXT48Pt5OPQpIca_ibTH-4" target="QXT48Pt5OPQpIca_ibTH-9" edge="1">
          <mxGeometry relative="1" as="geometry" />
        </mxCell>
        <mxCell id="QXT48Pt5OPQpIca_ibTH-35" value="&amp;lt;&amp;lt;deriveReq&amp;gt;&amp;gt;" style="edgeLabel;html=1;align=center;verticalAlign=middle;resizable=0;points=[];" parent="QXT48Pt5OPQpIca_ibTH-34" vertex="1" connectable="0">
          <mxGeometry x="0.1382" y="4" relative="1" as="geometry">
            <mxPoint as="offset" />
          </mxGeometry>
        </mxCell>
        <mxCell id="QXT48Pt5OPQpIca_ibTH-4" value="&lt;p style=&quot;margin:0px;margin-top:4px;text-align:center;&quot;&gt;&amp;lt;&amp;lt;requirement&amp;gt;&amp;gt;&lt;br&gt;GESTION DES CONSTANTES&lt;/p&gt;&lt;hr&gt;&lt;p&gt;&lt;/p&gt;&lt;p style=&quot;margin:0px;margin-left:8px;text-align:left;&quot;&gt;Id=&quot;3.&quot;&lt;/p&gt;" style="shape=rect;overflow=fill;html=1;whiteSpace=wrap;align=center;" parent="1" vertex="1">
          <mxGeometry x="1130" y="30" width="200" height="100" as="geometry" />
        </mxCell>
        <mxCell id="QXT48Pt5OPQpIca_ibTH-8" value="&lt;p style=&quot;margin:0px;margin-top:4px;text-align:center;&quot;&gt;&amp;lt;&amp;lt;requirement&amp;gt;&amp;gt;&lt;br&gt;&lt;b&gt;autonomie energetique&lt;/b&gt;&lt;/p&gt;&lt;hr&gt;&lt;p&gt;&lt;/p&gt;&lt;p style=&quot;margin:0px;margin-left:8px;text-align:left;&quot;&gt;text=&quot;le système doit être autonome en energie&quot;&lt;br&gt;Id=&quot;4.&quot;&lt;/p&gt;" style="shape=rect;overflow=fill;html=1;whiteSpace=wrap;align=center;" parent="1" vertex="1">
          <mxGeometry x="1470" width="200" height="100" as="geometry" />
        </mxCell>
        <mxCell id="QXT48Pt5OPQpIca_ibTH-9" value="&lt;p style=&quot;margin:0px;margin-top:4px;text-align:center;&quot;&gt;&amp;lt;&amp;lt;requirement&amp;gt;&amp;gt;&lt;br&gt;&lt;b&gt;ALIMENTATION EN EAU&lt;/b&gt;&lt;/p&gt;&lt;hr&gt;&lt;p&gt;&lt;/p&gt;&lt;p style=&quot;margin:0px;margin-left:8px;text-align:left;&quot;&gt;text=&quot;le système doit pouvoir être alimenté en eau&quot;&lt;br&gt;Id=&quot;2&lt;span style=&quot;background-color: initial;&quot;&gt;.&quot;&lt;/span&gt;&lt;/p&gt;" style="shape=rect;overflow=fill;html=1;whiteSpace=wrap;align=center;" parent="1" vertex="1">
          <mxGeometry x="790" y="110" width="200" height="100" as="geometry" />
        </mxCell>
        <mxCell id="QXT48Pt5OPQpIca_ibTH-25" style="rounded=0;orthogonalLoop=1;jettySize=auto;html=1;dashed=1;dashPattern=12 12;" parent="1" source="QXT48Pt5OPQpIca_ibTH-10" target="QXT48Pt5OPQpIca_ibTH-23" edge="1">
          <mxGeometry relative="1" as="geometry">
            <mxPoint x="850" y="720" as="targetPoint" />
            <Array as="points">
              <mxPoint x="570" y="750" />
            </Array>
          </mxGeometry>
        </mxCell>
        <mxCell id="QXT48Pt5OPQpIca_ibTH-26" value="&amp;lt;&amp;lt;satisfy&amp;gt;&amp;gt;" style="edgeLabel;html=1;align=center;verticalAlign=middle;resizable=0;points=[];" parent="QXT48Pt5OPQpIca_ibTH-25" vertex="1" connectable="0">
          <mxGeometry x="0.8343" y="-1" relative="1" as="geometry">
            <mxPoint as="offset" />
          </mxGeometry>
        </mxCell>
        <mxCell id="QXT48Pt5OPQpIca_ibTH-10" value="&lt;p style=&quot;margin:0px;margin-top:4px;text-align:center;&quot;&gt;&amp;lt;&amp;lt;block&amp;gt;&amp;gt;&lt;/p&gt;&lt;p style=&quot;margin:0px;margin-top:4px;text-align:center;&quot;&gt;IHM&lt;/p&gt;" style="shape=rect;overflow=fill;html=1;whiteSpace=wrap;align=center;" parent="1" vertex="1">
          <mxGeometry x="700" y="750" width="130" height="50" as="geometry" />
        </mxCell>
        <mxCell id="QXT48Pt5OPQpIca_ibTH-12" value="&amp;lt;&amp;lt;requirement&amp;gt;&amp;gt;&lt;br&gt;doit pouvoir stocker une qté de grains définie" style="shape=rect;html=1;whiteSpace=wrap;align=center;" parent="1" vertex="1">
          <mxGeometry x="550" y="150" width="120" height="60" as="geometry" />
        </mxCell>
        <mxCell id="QXT48Pt5OPQpIca_ibTH-13" value="&amp;lt;&amp;lt;deriveReq&amp;gt;&amp;gt;" style="endArrow=open;html=1;edgeStyle=none;endSize=12;dashed=1;rounded=0;" parent="1" source="QXT48Pt5OPQpIca_ibTH-14" target="QXT48Pt5OPQpIca_ibTH-12" edge="1">
          <mxGeometry relative="1" as="geometry">
            <mxPoint x="500" y="290" as="sourcePoint" />
          </mxGeometry>
        </mxCell>
        <mxCell id="QXT48Pt5OPQpIca_ibTH-17" style="rounded=0;orthogonalLoop=1;jettySize=auto;html=1;endArrow=none;endFill=0;startArrow=circlePlus;startFill=0;" parent="1" source="QXT48Pt5OPQpIca_ibTH-14" target="QXT48Pt5OPQpIca_ibTH-16" edge="1">
          <mxGeometry relative="1" as="geometry" />
        </mxCell>
        <mxCell id="QXT48Pt5OPQpIca_ibTH-14" value="&lt;p style=&quot;margin:0px;margin-top:4px;text-align:center;&quot;&gt;&amp;lt;&amp;lt;requirement&amp;gt;&amp;gt;&lt;br&gt;&lt;b&gt;stockage du grain&lt;/b&gt;&lt;/p&gt;&lt;hr&gt;&lt;p&gt;&lt;/p&gt;&lt;p style=&quot;margin:0px;margin-left:8px;text-align:left;&quot;&gt;text=&quot;le système doit pouvoir stocker une qté de grains définis&quot;&lt;br&gt;Id=&quot;1.2.&quot;&lt;/p&gt;" style="shape=rect;overflow=fill;html=1;whiteSpace=wrap;align=center;" parent="1" vertex="1">
          <mxGeometry x="370" y="280" width="200" height="100" as="geometry" />
        </mxCell>
        <mxCell id="QXT48Pt5OPQpIca_ibTH-16" value="&lt;p style=&quot;margin:0px;margin-top:4px;text-align:center;&quot;&gt;&amp;lt;&amp;lt;requirement&amp;gt;&amp;gt;&lt;br&gt;&lt;b&gt;accès à la reserve&lt;/b&gt;&lt;/p&gt;&lt;hr&gt;&lt;p&gt;&lt;/p&gt;&lt;p style=&quot;margin:0px;margin-left:8px;text-align:left;&quot;&gt;text=&quot;le système doit pouvoir permettre un accès facile afin de recharger la reserve de grain&quot;&lt;br&gt;Id=&quot;1.2.1.&quot;&lt;/p&gt;" style="shape=rect;overflow=fill;html=1;whiteSpace=wrap;align=center;" parent="1" vertex="1">
          <mxGeometry x="440" y="410" width="200" height="120" as="geometry" />
        </mxCell>
        <mxCell id="QXT48Pt5OPQpIca_ibTH-21" value="&lt;p style=&quot;margin:0px;margin-top:4px;text-align:center;&quot;&gt;&amp;lt;&amp;lt;requirement&amp;gt;&amp;gt;&lt;br&gt;&lt;b&gt;distribution automatique&lt;/b&gt;&lt;/p&gt;&lt;hr&gt;&lt;p&gt;&lt;/p&gt;&lt;p style=&quot;margin:0px;margin-left:8px;text-align:left;&quot;&gt;text=&quot;le système doit pouvoir dsitribuer des grains à heures définies&quot;&lt;br&gt;Id=&quot;1.1&lt;span style=&quot;background-color: initial;&quot;&gt;.&quot;&lt;/span&gt;&lt;/p&gt;" style="shape=rect;overflow=fill;html=1;whiteSpace=wrap;align=center;" parent="1" vertex="1">
          <mxGeometry x="140" y="350" width="200" height="120" as="geometry" />
        </mxCell>
        <mxCell id="QXT48Pt5OPQpIca_ibTH-22" style="rounded=0;orthogonalLoop=1;jettySize=auto;html=1;endArrow=none;endFill=0;startArrow=circlePlus;startFill=0;" parent="1" source="QXT48Pt5OPQpIca_ibTH-21" target="QXT48Pt5OPQpIca_ibTH-23" edge="1">
          <mxGeometry relative="1" as="geometry">
            <mxPoint x="511" y="590" as="sourcePoint" />
          </mxGeometry>
        </mxCell>
        <mxCell id="QXT48Pt5OPQpIca_ibTH-23" value="&lt;p style=&quot;margin:0px;margin-top:4px;text-align:center;&quot;&gt;&amp;lt;&amp;lt;requirement&amp;gt;&amp;gt;&lt;br&gt;&lt;b&gt;définir des heures&lt;/b&gt;&lt;/p&gt;&lt;hr&gt;&lt;p&gt;&lt;/p&gt;&lt;p style=&quot;margin:0px;margin-left:8px;text-align:left;&quot;&gt;text=&quot;le système doit pouvoir stocker les heures de distribution et en permetre l&#39;edition [[via l&#39;IHM]]&quot;&lt;br&gt;Id=&quot;1.1.1.&quot;&lt;/p&gt;" style="shape=rect;overflow=fill;html=1;whiteSpace=wrap;align=center;" parent="1" vertex="1">
          <mxGeometry x="200" y="510" width="200" height="120" as="geometry" />
        </mxCell>
        <mxCell id="QXT48Pt5OPQpIca_ibTH-27" value="&lt;p style=&quot;margin:0px;margin-top:4px;text-align:center;&quot;&gt;&amp;lt;&amp;lt;requirement&amp;gt;&amp;gt;&lt;br&gt;&lt;b&gt;limite&lt;/b&gt;&lt;/p&gt;&lt;hr&gt;&lt;p&gt;&lt;/p&gt;&lt;p style=&quot;margin:0px;margin-left:8px;text-align:left;&quot;&gt;text=&quot;ne doit pas descendre en dessous de 10% de son volume&quot;&lt;br&gt;Id=&quot;1.3&quot;&lt;/p&gt;" style="shape=rect;overflow=fill;html=1;whiteSpace=wrap;align=center;" parent="1" vertex="1">
          <mxGeometry x="50" y="220" width="200" height="100" as="geometry" />
        </mxCell>
        <mxCell id="QXT48Pt5OPQpIca_ibTH-33" value="&lt;p style=&quot;margin:0px;margin-top:4px;text-align:center;&quot;&gt;&amp;lt;&amp;lt;requirement&amp;gt;&amp;gt;&lt;br&gt;&lt;b&gt;limite&lt;/b&gt;&lt;/p&gt;&lt;hr&gt;&lt;p&gt;&lt;/p&gt;&lt;p style=&quot;margin:0px;margin-left:8px;text-align:left;&quot;&gt;text=&quot;ne doit pas descendre en dessous de 10%&quot;&lt;br&gt;Id=&quot;2&lt;span style=&quot;background-color: initial;&quot;&gt;.3&quot;&lt;/span&gt;&lt;/p&gt;" style="shape=rect;overflow=fill;html=1;whiteSpace=wrap;align=center;" parent="1" vertex="1">
          <mxGeometry x="1040" y="230" width="200" height="100" as="geometry" />
        </mxCell>
        <mxCell id="QXT48Pt5OPQpIca_ibTH-36" style="rounded=0;orthogonalLoop=1;jettySize=auto;html=1;dashed=1;dashPattern=8 8;" parent="1" source="QXT48Pt5OPQpIca_ibTH-4" target="QXT48Pt5OPQpIca_ibTH-3" edge="1">
          <mxGeometry relative="1" as="geometry">
            <mxPoint x="1220" y="220" as="sourcePoint" />
            <mxPoint x="710" y="170" as="targetPoint" />
            <Array as="points">
              <mxPoint x="1090" y="40" />
              <mxPoint x="860" y="40" />
            </Array>
          </mxGeometry>
        </mxCell>
        <mxCell id="QXT48Pt5OPQpIca_ibTH-37" value="&amp;lt;&amp;lt;deriveReq&amp;gt;&amp;gt;" style="edgeLabel;html=1;align=center;verticalAlign=middle;resizable=0;points=[];" parent="QXT48Pt5OPQpIca_ibTH-36" vertex="1" connectable="0">
          <mxGeometry x="0.1382" y="4" relative="1" as="geometry">
            <mxPoint as="offset" />
          </mxGeometry>
        </mxCell>
        <mxCell id="QXT48Pt5OPQpIca_ibTH-40" style="rounded=0;orthogonalLoop=1;jettySize=auto;html=1;dashed=1;dashPattern=8 8;" parent="1" source="QXT48Pt5OPQpIca_ibTH-38" target="QXT48Pt5OPQpIca_ibTH-4" edge="1">
          <mxGeometry relative="1" as="geometry">
            <mxPoint x="1230" y="219.9999999999991" as="targetPoint" />
          </mxGeometry>
        </mxCell>
        <mxCell id="QXT48Pt5OPQpIca_ibTH-41" value="&amp;lt;&amp;lt;refine&amp;gt;&amp;gt;" style="edgeLabel;html=1;align=center;verticalAlign=middle;resizable=0;points=[];" parent="QXT48Pt5OPQpIca_ibTH-40" vertex="1" connectable="0">
          <mxGeometry x="0.1569" y="1" relative="1" as="geometry">
            <mxPoint as="offset" />
          </mxGeometry>
        </mxCell>
        <mxCell id="QXT48Pt5OPQpIca_ibTH-38" value="&lt;p style=&quot;margin:0px;margin-top:4px;text-align:center;&quot;&gt;&amp;lt;&amp;lt;requirement&amp;gt;&amp;gt;&lt;br&gt;&lt;b&gt;humiditée&lt;/b&gt;&lt;/p&gt;&lt;p style=&quot;margin:0px;margin-left:8px;text-align:left;&quot;&gt;&lt;br&gt;Id=&quot;3.1.&quot;&lt;/p&gt;" style="shape=rect;overflow=fill;html=1;whiteSpace=wrap;align=center;" parent="1" vertex="1">
          <mxGeometry x="1360" y="180" width="100" height="70" as="geometry" />
        </mxCell>
        <mxCell id="QXT48Pt5OPQpIca_ibTH-43" style="rounded=0;orthogonalLoop=1;jettySize=auto;html=1;dashed=1;dashPattern=8 8;" parent="1" source="QXT48Pt5OPQpIca_ibTH-45" target="QXT48Pt5OPQpIca_ibTH-4" edge="1">
          <mxGeometry relative="1" as="geometry">
            <mxPoint x="1178" y="210" as="targetPoint" />
          </mxGeometry>
        </mxCell>
        <mxCell id="QXT48Pt5OPQpIca_ibTH-44" value="&amp;lt;&amp;lt;refine&amp;gt;&amp;gt;" style="edgeLabel;html=1;align=center;verticalAlign=middle;resizable=0;points=[];" parent="QXT48Pt5OPQpIca_ibTH-43" vertex="1" connectable="0">
          <mxGeometry x="0.1569" y="1" relative="1" as="geometry">
            <mxPoint as="offset" />
          </mxGeometry>
        </mxCell>
        <mxCell id="QXT48Pt5OPQpIca_ibTH-45" value="&lt;p style=&quot;margin:0px;margin-top:4px;text-align:center;&quot;&gt;&amp;lt;&amp;lt;requirement&amp;gt;&amp;gt;&lt;br&gt;&lt;b&gt;temperature&lt;/b&gt;&lt;/p&gt;&lt;p style=&quot;margin:0px;margin-left:8px;text-align:left;&quot;&gt;&lt;br&gt;Id=&quot;3.2.&quot;&lt;/p&gt;" style="shape=rect;overflow=fill;html=1;whiteSpace=wrap;align=center;" parent="1" vertex="1">
          <mxGeometry x="1250" y="190" width="100" height="70" as="geometry" />
        </mxCell>
        <mxCell id="QXT48Pt5OPQpIca_ibTH-47" style="rounded=0;orthogonalLoop=1;jettySize=auto;html=1;dashed=1;dashPattern=8 8;" parent="1" source="QXT48Pt5OPQpIca_ibTH-46" target="QXT48Pt5OPQpIca_ibTH-23" edge="1">
          <mxGeometry relative="1" as="geometry" />
        </mxCell>
        <mxCell id="QXT48Pt5OPQpIca_ibTH-48" value="&amp;lt;&amp;lt;satisfy&amp;gt;&amp;gt;" style="edgeLabel;html=1;align=center;verticalAlign=middle;resizable=0;points=[];" parent="QXT48Pt5OPQpIca_ibTH-47" vertex="1" connectable="0">
          <mxGeometry x="0.5136" relative="1" as="geometry">
            <mxPoint as="offset" />
          </mxGeometry>
        </mxCell>
        <mxCell id="QXT48Pt5OPQpIca_ibTH-46" value="&lt;p style=&quot;margin:0px;margin-top:4px;text-align:center;&quot;&gt;&amp;lt;&amp;lt;block&amp;gt;&amp;gt;&lt;br&gt;&lt;b&gt;LE TEMPS&lt;/b&gt;&lt;/p&gt;" style="shape=rect;overflow=fill;html=1;whiteSpace=wrap;align=center;" parent="1" vertex="1">
          <mxGeometry x="590" y="640" width="140" height="50" as="geometry" />
        </mxCell>
        <mxCell id="QXT48Pt5OPQpIca_ibTH-55" value="&lt;p style=&quot;margin:0px;margin-top:4px;text-align:center;&quot;&gt;&amp;lt;&amp;lt;requirement&amp;gt;&amp;gt;&lt;br&gt;&lt;b&gt;stockage de l&#39;eau&lt;/b&gt;&lt;/p&gt;&lt;hr&gt;&lt;p&gt;&lt;/p&gt;&lt;p style=&quot;margin:0px;margin-left:8px;text-align:left;&quot;&gt;text=&quot;le système doit pouvoir stocker une qté d&#39;eau définis&quot;&lt;br&gt;Id=&quot;2.2.&quot;&lt;/p&gt;" style="shape=rect;overflow=fill;html=1;whiteSpace=wrap;align=center;" parent="1" vertex="1">
          <mxGeometry x="830" y="250" width="200" height="100" as="geometry" />
        </mxCell>
        <mxCell id="QXT48Pt5OPQpIca_ibTH-58" value="&lt;p style=&quot;margin:0px;margin-top:4px;text-align:center;&quot;&gt;&amp;lt;&amp;lt;requirement&amp;gt;&amp;gt;&lt;br&gt;&lt;b&gt;distribution automatique&lt;/b&gt;&lt;/p&gt;&lt;hr&gt;&lt;p&gt;&lt;/p&gt;&lt;p style=&quot;margin:0px;margin-left:8px;text-align:left;&quot;&gt;text=&quot;le système doit pouvoir dsitribuer des grains à heures définies&quot;&lt;br&gt;Id=&quot;2.1&lt;span style=&quot;background-color: initial;&quot;&gt;.&quot;&lt;/span&gt;&lt;/p&gt;" style="shape=rect;overflow=fill;html=1;whiteSpace=wrap;align=center;" parent="1" vertex="1">
          <mxGeometry x="610" y="270" width="200" height="120" as="geometry" />
        </mxCell>
        <mxCell id="QXT48Pt5OPQpIca_ibTH-59" style="rounded=0;orthogonalLoop=1;jettySize=auto;html=1;endArrow=none;endFill=0;startArrow=circlePlus;startFill=0;" parent="1" source="QXT48Pt5OPQpIca_ibTH-58" target="QXT48Pt5OPQpIca_ibTH-60" edge="1">
          <mxGeometry relative="1" as="geometry">
            <mxPoint x="768" y="750" as="sourcePoint" />
          </mxGeometry>
        </mxCell>
        <mxCell id="QXT48Pt5OPQpIca_ibTH-60" value="&lt;p style=&quot;margin:0px;margin-top:4px;text-align:center;&quot;&gt;&amp;lt;&amp;lt;requirement&amp;gt;&amp;gt;&lt;br&gt;&lt;b&gt;définir des heures&lt;/b&gt;&lt;/p&gt;&lt;hr&gt;&lt;p&gt;&lt;/p&gt;&lt;p style=&quot;margin:0px;margin-left:8px;text-align:left;&quot;&gt;text=&quot;le système doit pouvoir stocker les heures de distribution et en permetre l&#39;edition [[via l&#39;IHM]]&quot;&lt;br&gt;Id=&quot;2.1.1.&quot;&lt;/p&gt;" style="shape=rect;overflow=fill;html=1;whiteSpace=wrap;align=center;" parent="1" vertex="1">
          <mxGeometry x="720" y="430" width="200" height="120" as="geometry" />
        </mxCell>
        <mxCell id="QXT48Pt5OPQpIca_ibTH-61" style="rounded=0;orthogonalLoop=1;jettySize=auto;html=1;dashed=1;dashPattern=12 12;" parent="1" source="QXT48Pt5OPQpIca_ibTH-10" target="QXT48Pt5OPQpIca_ibTH-60" edge="1">
          <mxGeometry relative="1" as="geometry">
            <mxPoint x="490" y="730" as="targetPoint" />
            <mxPoint x="2665" y="610" as="sourcePoint" />
          </mxGeometry>
        </mxCell>
        <mxCell id="QXT48Pt5OPQpIca_ibTH-62" value="&amp;lt;&amp;lt;satisfy&amp;gt;&amp;gt;" style="edgeLabel;html=1;align=center;verticalAlign=middle;resizable=0;points=[];" parent="QXT48Pt5OPQpIca_ibTH-61" vertex="1" connectable="0">
          <mxGeometry x="0.8343" y="-1" relative="1" as="geometry">
            <mxPoint as="offset" />
          </mxGeometry>
        </mxCell>
        <mxCell id="QXT48Pt5OPQpIca_ibTH-63" style="rounded=0;orthogonalLoop=1;jettySize=auto;html=1;dashed=1;dashPattern=8 8;" parent="1" source="QXT48Pt5OPQpIca_ibTH-46" target="QXT48Pt5OPQpIca_ibTH-60" edge="1">
          <mxGeometry relative="1" as="geometry">
            <mxPoint x="913" y="1110" as="sourcePoint" />
            <mxPoint x="470" y="780" as="targetPoint" />
          </mxGeometry>
        </mxCell>
        <mxCell id="QXT48Pt5OPQpIca_ibTH-64" value="&amp;lt;&amp;lt;satisfy&amp;gt;&amp;gt;" style="edgeLabel;html=1;align=center;verticalAlign=middle;resizable=0;points=[];" parent="QXT48Pt5OPQpIca_ibTH-63" vertex="1" connectable="0">
          <mxGeometry x="0.5136" relative="1" as="geometry">
            <mxPoint as="offset" />
          </mxGeometry>
        </mxCell>
        <mxCell id="QXT48Pt5OPQpIca_ibTH-65" style="rounded=0;orthogonalLoop=1;jettySize=auto;html=1;endArrow=none;endFill=0;startArrow=circlePlus;startFill=0;" parent="1" source="QXT48Pt5OPQpIca_ibTH-3" target="QXT48Pt5OPQpIca_ibTH-14" edge="1">
          <mxGeometry relative="1" as="geometry">
            <mxPoint x="430" y="220" as="sourcePoint" />
            <mxPoint x="560" y="500" as="targetPoint" />
          </mxGeometry>
        </mxCell>
        <mxCell id="QXT48Pt5OPQpIca_ibTH-66" style="rounded=0;orthogonalLoop=1;jettySize=auto;html=1;endArrow=none;endFill=0;startArrow=circlePlus;startFill=0;" parent="1" source="QXT48Pt5OPQpIca_ibTH-3" target="QXT48Pt5OPQpIca_ibTH-21" edge="1">
          <mxGeometry relative="1" as="geometry">
            <mxPoint x="428" y="190" as="sourcePoint" />
            <mxPoint x="463" y="290" as="targetPoint" />
          </mxGeometry>
        </mxCell>
        <mxCell id="QXT48Pt5OPQpIca_ibTH-67" style="rounded=0;orthogonalLoop=1;jettySize=auto;html=1;endArrow=none;endFill=0;startArrow=circlePlus;startFill=0;" parent="1" source="QXT48Pt5OPQpIca_ibTH-3" target="QXT48Pt5OPQpIca_ibTH-27" edge="1">
          <mxGeometry relative="1" as="geometry">
            <mxPoint x="438" y="200" as="sourcePoint" />
            <mxPoint x="473" y="300" as="targetPoint" />
          </mxGeometry>
        </mxCell>
        <mxCell id="QXT48Pt5OPQpIca_ibTH-68" style="rounded=0;orthogonalLoop=1;jettySize=auto;html=1;endArrow=none;endFill=0;startArrow=circlePlus;startFill=0;" parent="1" source="QXT48Pt5OPQpIca_ibTH-9" target="QXT48Pt5OPQpIca_ibTH-55" edge="1">
          <mxGeometry relative="1" as="geometry">
            <mxPoint x="448" y="210" as="sourcePoint" />
            <mxPoint x="483" y="310" as="targetPoint" />
          </mxGeometry>
        </mxCell>
        <mxCell id="QXT48Pt5OPQpIca_ibTH-69" style="rounded=0;orthogonalLoop=1;jettySize=auto;html=1;endArrow=none;endFill=0;startArrow=circlePlus;startFill=0;" parent="1" source="QXT48Pt5OPQpIca_ibTH-9" target="QXT48Pt5OPQpIca_ibTH-33" edge="1">
          <mxGeometry relative="1" as="geometry">
            <mxPoint x="458" y="220" as="sourcePoint" />
            <mxPoint x="493" y="320" as="targetPoint" />
          </mxGeometry>
        </mxCell>
        <mxCell id="QXT48Pt5OPQpIca_ibTH-70" style="rounded=0;orthogonalLoop=1;jettySize=auto;html=1;endArrow=none;endFill=0;startArrow=circlePlus;startFill=0;" parent="1" source="QXT48Pt5OPQpIca_ibTH-9" target="QXT48Pt5OPQpIca_ibTH-58" edge="1">
          <mxGeometry relative="1" as="geometry">
            <mxPoint x="468" y="230" as="sourcePoint" />
            <mxPoint x="503" y="330" as="targetPoint" />
          </mxGeometry>
        </mxCell>
        <mxCell id="AaWAkNKSgnBGYdLt6vEf-74" style="rounded=0;orthogonalLoop=1;jettySize=auto;html=1;endArrow=circlePlus;endFill=0;" edge="1" parent="1" source="AaWAkNKSgnBGYdLt6vEf-56" target="QXT48Pt5OPQpIca_ibTH-8">
          <mxGeometry relative="1" as="geometry">
            <mxPoint x="1880" y="60" as="targetPoint" />
          </mxGeometry>
        </mxCell>
        <mxCell id="AaWAkNKSgnBGYdLt6vEf-56" value="&lt;p style=&quot;margin:0px;margin-top:4px;text-align:center;&quot;&gt;&amp;lt;&amp;lt;fonctional requirement&amp;gt;&amp;gt;&lt;br&gt;&lt;b&gt;stockage&lt;/b&gt;&lt;/p&gt;&lt;hr&gt;&lt;p&gt;&lt;/p&gt;&lt;p style=&quot;margin:0px;margin-left:8px;text-align:left;&quot;&gt;text=&quot;le système doit être en capacité de stoquer son énergie&quot;&lt;br&gt;id=&quot;4.1.&quot;&lt;/p&gt;" style="shape=rect;overflow=fill;html=1;whiteSpace=wrap;align=center;" vertex="1" parent="1">
          <mxGeometry x="1860" y="-5" width="200" height="125" as="geometry" />
        </mxCell>
        <mxCell id="AaWAkNKSgnBGYdLt6vEf-73" style="rounded=0;orthogonalLoop=1;jettySize=auto;html=1;endArrow=circlePlus;endFill=0;" edge="1" parent="1" source="AaWAkNKSgnBGYdLt6vEf-57" target="QXT48Pt5OPQpIca_ibTH-8">
          <mxGeometry relative="1" as="geometry" />
        </mxCell>
        <mxCell id="AaWAkNKSgnBGYdLt6vEf-57" value="&lt;p style=&quot;margin:0px;margin-top:4px;text-align:center;&quot;&gt;&amp;lt;&amp;lt;requirement&amp;gt;&amp;gt;&lt;br&gt;&lt;b&gt;generation&lt;/b&gt;&lt;/p&gt;&lt;hr&gt;&lt;p&gt;&lt;/p&gt;&lt;p style=&quot;margin:0px;margin-left:8px;text-align:left;&quot;&gt;text=&quot;le système doit être en capacitée de générer son énergie&lt;span style=&quot;background-color: initial;&quot;&gt;&quot;&lt;/span&gt;&lt;/p&gt;&lt;p style=&quot;margin:0px;margin-left:8px;text-align:left;&quot;&gt;id=&quot;4.2.&quot;&lt;/p&gt;" style="shape=rect;overflow=fill;html=1;whiteSpace=wrap;align=center;" vertex="1" parent="1">
          <mxGeometry x="1810" y="170" width="200" height="110" as="geometry" />
        </mxCell>
        <mxCell id="AaWAkNKSgnBGYdLt6vEf-75" style="rounded=0;orthogonalLoop=1;jettySize=auto;html=1;endArrow=circlePlus;endFill=0;" edge="1" parent="1" source="AaWAkNKSgnBGYdLt6vEf-58" target="QXT48Pt5OPQpIca_ibTH-8">
          <mxGeometry relative="1" as="geometry" />
        </mxCell>
        <mxCell id="AaWAkNKSgnBGYdLt6vEf-58" value="&lt;p style=&quot;margin:0px;margin-top:4px;text-align:center;&quot;&gt;&amp;lt;&amp;lt;usability requirement&amp;gt;&amp;gt;&lt;br&gt;&lt;b&gt;sécuritée&lt;/b&gt;&lt;/p&gt;&lt;hr&gt;&lt;p&gt;&lt;/p&gt;&lt;p style=&quot;margin:0px;margin-left:8px;text-align:left;&quot;&gt;text=&quot;le système doit garantir la sécurité de l&#39;utilisateur tout en respectant les normes en vigueures&lt;span style=&quot;background-color: initial;&quot;&gt;&quot;&lt;/span&gt;&lt;/p&gt;&lt;p style=&quot;margin:0px;margin-left:8px;text-align:left;&quot;&gt;id=&quot;4.3.&quot;&lt;/p&gt;" style="shape=rect;overflow=fill;html=1;whiteSpace=wrap;align=center;" vertex="1" parent="1">
          <mxGeometry x="1530" y="320" width="200" height="125" as="geometry" />
        </mxCell>
        <mxCell id="AaWAkNKSgnBGYdLt6vEf-59" value="&lt;p style=&quot;margin:0px;margin-top:4px;text-align:center;&quot;&gt;&amp;lt;&amp;lt;sustainability requirement&amp;gt;&amp;gt;&lt;br&gt;&lt;b&gt;renouvelabilitée&lt;/b&gt;&lt;/p&gt;&lt;hr&gt;&lt;p&gt;&lt;/p&gt;&lt;p style=&quot;margin:0px;margin-left:8px;text-align:left;&quot;&gt;text=&quot;le système doit être entièrement renouvelable dans son fonctionnement&quot;&lt;br&gt;id=&quot;4.2.2.&quot;&lt;/p&gt;" style="shape=rect;overflow=fill;html=1;whiteSpace=wrap;align=center;" vertex="1" parent="1">
          <mxGeometry x="2100" y="335" width="200" height="110" as="geometry" />
        </mxCell>
        <mxCell id="AaWAkNKSgnBGYdLt6vEf-60" value="&lt;p style=&quot;margin:0px;margin-top:4px;text-align:center;&quot;&gt;&amp;lt;&amp;lt;fonctional requirement&amp;gt;&amp;gt;&lt;br&gt;&lt;b&gt;generation&lt;/b&gt;&lt;/p&gt;&lt;hr&gt;&lt;p&gt;&lt;/p&gt;&lt;p style=&quot;margin:0px;margin-left:8px;text-align:left;&quot;&gt;text=&quot;le système doit pouvoir générer assez d&#39;énergie&quot;&lt;br&gt;id=&quot;4.2.1.&quot;&lt;/p&gt;" style="shape=rect;overflow=fill;html=1;whiteSpace=wrap;align=center;" vertex="1" parent="1">
          <mxGeometry x="2110" y="160" width="200" height="110" as="geometry" />
        </mxCell>
        <mxCell id="AaWAkNKSgnBGYdLt6vEf-61" value="&lt;p style=&quot;margin:0px;margin-top:4px;text-align:center;&quot;&gt;&amp;lt;&amp;lt;fonctional requirement&amp;gt;&amp;gt;&lt;br&gt;&lt;b&gt;recharge&lt;/b&gt;&lt;/p&gt;&lt;hr&gt;&lt;p&gt;&lt;/p&gt;&lt;p style=&quot;margin:0px;margin-left:8px;text-align:left;&quot;&gt;text=&quot;le système doit pouvour générer assez pour recharger les batteries&quot;&lt;br&gt;id=&quot;4.2.1.1.&quot;&lt;/p&gt;" style="shape=rect;overflow=fill;html=1;whiteSpace=wrap;align=center;" vertex="1" parent="1">
          <mxGeometry x="2380" y="160" width="200" height="110" as="geometry" />
        </mxCell>
        <mxCell id="AaWAkNKSgnBGYdLt6vEf-62" value="&lt;p style=&quot;margin:0px;margin-top:4px;text-align:center;&quot;&gt;&amp;lt;&amp;lt;fonctional requirement&amp;gt;&amp;gt;&lt;br&gt;&lt;b&gt;usage&lt;/b&gt;&lt;/p&gt;&lt;hr&gt;&lt;p&gt;&lt;/p&gt;&lt;p style=&quot;margin:0px;margin-left:8px;text-align:left;&quot;&gt;text=&quot;le système doit pouvoir générer assez pour alimenter les appareils connéctés&quot;&lt;br&gt;id=&quot;4.2.1.2.&quot;&lt;/p&gt;" style="shape=rect;overflow=fill;html=1;whiteSpace=wrap;align=center;" vertex="1" parent="1">
          <mxGeometry x="2350" y="335" width="200" height="110" as="geometry" />
        </mxCell>
        <mxCell id="AaWAkNKSgnBGYdLt6vEf-63" value="&lt;p style=&quot;margin:0px;margin-top:4px;text-align:center;&quot;&gt;&amp;lt;&amp;lt;usability requirement&amp;gt;&amp;gt;&lt;br&gt;&lt;b&gt;continuitée&lt;/b&gt;&lt;/p&gt;&lt;hr&gt;&lt;p&gt;&lt;/p&gt;&lt;p style=&quot;margin:0px;margin-left:8px;text-align:left;&quot;&gt;text=&quot;le système doit pouvoir génerer de l&#39;énergie de manière continue et stable dans le temps&quot;&lt;br&gt;id=&quot;4.2.3.&quot;&lt;/p&gt;" style="shape=rect;overflow=fill;html=1;whiteSpace=wrap;align=center;" vertex="1" parent="1">
          <mxGeometry x="1820" y="370" width="200" height="110" as="geometry" />
        </mxCell>
        <mxCell id="AaWAkNKSgnBGYdLt6vEf-64" value="&lt;p style=&quot;margin:0px;margin-top:4px;text-align:center;&quot;&gt;&amp;lt;&amp;lt;usability requirement&amp;gt;&amp;gt;&lt;br&gt;&lt;b&gt;meteo&lt;/b&gt;&lt;/p&gt;&lt;hr&gt;&lt;p&gt;&lt;/p&gt;&lt;p style=&quot;margin:0px;margin-left:8px;text-align:left;&quot;&gt;text=&quot;le système doit pouvour générer de l&#39;énergie malgré la meteo&quot;&lt;br&gt;id=&quot;4.2.3.1.&quot;&lt;/p&gt;" style="shape=rect;overflow=fill;html=1;whiteSpace=wrap;align=center;" vertex="1" parent="1">
          <mxGeometry x="2100" y="500" width="200" height="110" as="geometry" />
        </mxCell>
        <mxCell id="AaWAkNKSgnBGYdLt6vEf-65" value="&lt;p style=&quot;margin:0px;margin-top:4px;text-align:center;&quot;&gt;&amp;lt;&amp;lt;usability requirement&amp;gt;&amp;gt;&lt;br&gt;&lt;b&gt;temps&lt;/b&gt;&lt;/p&gt;&lt;hr&gt;&lt;p&gt;&lt;/p&gt;&lt;p style=&quot;margin:0px;margin-left:8px;text-align:left;&quot;&gt;text=&quot;le système doit pouvour générer de l&#39;énergie indépendament du moment de la journée&quot;&lt;br&gt;id=&quot;4.2.3.2.&quot;&lt;/p&gt;" style="shape=rect;overflow=fill;html=1;whiteSpace=wrap;align=center;" vertex="1" parent="1">
          <mxGeometry x="1870" y="550" width="200" height="125" as="geometry" />
        </mxCell>
        <mxCell id="AaWAkNKSgnBGYdLt6vEf-66" value="" style="edgeStyle=none;html=1;startArrow=sysMLPackCont;startSize=12;endArrow=none;rounded=0;" edge="1" parent="1" source="AaWAkNKSgnBGYdLt6vEf-57" target="AaWAkNKSgnBGYdLt6vEf-60">
          <mxGeometry width="160" relative="1" as="geometry">
            <mxPoint x="2207" y="10" as="sourcePoint" />
            <mxPoint x="2320" y="10" as="targetPoint" />
          </mxGeometry>
        </mxCell>
        <mxCell id="AaWAkNKSgnBGYdLt6vEf-67" value="" style="edgeStyle=none;html=1;startArrow=sysMLPackCont;startSize=12;endArrow=none;rounded=0;" edge="1" parent="1" source="AaWAkNKSgnBGYdLt6vEf-57" target="AaWAkNKSgnBGYdLt6vEf-59">
          <mxGeometry width="160" relative="1" as="geometry">
            <mxPoint x="2232" y="45" as="sourcePoint" />
            <mxPoint x="2345" y="45" as="targetPoint" />
          </mxGeometry>
        </mxCell>
        <mxCell id="AaWAkNKSgnBGYdLt6vEf-68" value="" style="edgeStyle=none;html=1;startArrow=sysMLPackCont;startSize=12;endArrow=none;rounded=0;" edge="1" parent="1" source="AaWAkNKSgnBGYdLt6vEf-57" target="AaWAkNKSgnBGYdLt6vEf-63">
          <mxGeometry width="160" relative="1" as="geometry">
            <mxPoint x="2200" y="80" as="sourcePoint" />
            <mxPoint x="2295" y="192.5" as="targetPoint" />
          </mxGeometry>
        </mxCell>
        <mxCell id="AaWAkNKSgnBGYdLt6vEf-69" value="" style="edgeStyle=none;html=1;startArrow=sysMLPackCont;startSize=12;endArrow=none;rounded=0;" edge="1" parent="1" source="AaWAkNKSgnBGYdLt6vEf-60" target="AaWAkNKSgnBGYdLt6vEf-62">
          <mxGeometry width="160" relative="1" as="geometry">
            <mxPoint x="2527" y="160" as="sourcePoint" />
            <mxPoint x="2640" y="160" as="targetPoint" />
          </mxGeometry>
        </mxCell>
        <mxCell id="AaWAkNKSgnBGYdLt6vEf-70" value="" style="edgeStyle=none;html=1;startArrow=sysMLPackCont;startSize=12;endArrow=none;rounded=0;" edge="1" parent="1" source="AaWAkNKSgnBGYdLt6vEf-60" target="AaWAkNKSgnBGYdLt6vEf-61">
          <mxGeometry width="160" relative="1" as="geometry">
            <mxPoint x="2517" y="150" as="sourcePoint" />
            <mxPoint x="2630" y="150" as="targetPoint" />
          </mxGeometry>
        </mxCell>
        <mxCell id="AaWAkNKSgnBGYdLt6vEf-71" value="" style="edgeStyle=none;html=1;startArrow=sysMLPackCont;startSize=12;endArrow=none;rounded=0;" edge="1" parent="1" source="AaWAkNKSgnBGYdLt6vEf-63" target="AaWAkNKSgnBGYdLt6vEf-65">
          <mxGeometry width="160" relative="1" as="geometry">
            <mxPoint x="2532" y="257.5" as="sourcePoint" />
            <mxPoint x="2645" y="257.5" as="targetPoint" />
          </mxGeometry>
        </mxCell>
        <mxCell id="AaWAkNKSgnBGYdLt6vEf-72" value="" style="edgeStyle=none;html=1;startArrow=sysMLPackCont;startSize=12;endArrow=none;rounded=0;" edge="1" parent="1" source="AaWAkNKSgnBGYdLt6vEf-63" target="AaWAkNKSgnBGYdLt6vEf-64">
          <mxGeometry width="160" relative="1" as="geometry">
            <mxPoint x="2522" y="247.5" as="sourcePoint" />
            <mxPoint x="2635" y="247.5" as="targetPoint" />
          </mxGeometry>
        </mxCell>
      </root>
    </mxGraphModel>
  </diagram>
</mxfile>
